<?xml version="1.0" encoding="UTF-8"?>
<svg id="Layer_2" data-name="Layer 2" xmlns="http://www.w3.org/2000/svg" viewBox="0 0 574.76 120.54">
  <defs>
    <style>
      .cls-1 {
        fill: purple;
      }
    </style>
  </defs>
  <g id="Layer_1-2" data-name="Layer 1">
    <g>
      <path class="cls-1" d="M183.69,107.37c.01.76-.42,1.44-1.1,1.76l-123.46,6.3c-1.03.48-2.25-.06-2.59-1.15l-5.16-16.25c-.64-1.99-3.55-1.65-3.69.43l-1.06,14.98c-.06.82-.65,1.5-1.44,1.7-6.42,1.56-33.73,8.01-34,4.24-.26-3.57.77-29.38,1.11-37.66.05-1.27,1.32-2.13,2.52-1.7.21.07.43.11.62.11,1.23,0,2.22-1.23,1.78-2.52L1.1,30.68c-.1-.26-.23-.51-.43-.71-1.16-1.22-4.61-7.6,30.43-21.64,1.17-.48,2.47.32,2.59,1.56.7,7.31,2.73,28.06,3.11,27.81.4-.27,16.99-26.59,21.55-33.83.51-.82.33-1.89-.43-2.48-.48-.38-.44-.87,1.58-1.31,4.02-.9,38.06,4.95,29.69,8.2-.4.16-.75.45-.95.83l-21.6,32.48c-.26.45-.31.99-.16,1.49.09.32.11.75-.13,1.23-.54,1.06-1.71,3.39-.54,3.78,1.19.38,1.3,2.27,1.3,3.04s.73,1.48,3.7.61c.6-.17,4.58.51,10.56,1.74-3.79,1.93-6.48,6.74-4.23,10.79,3.62-1.89,5.23-2.15,8.35-3.26,3.09-1.15,5.59-2.38,8.81-4.67-.04-.05-.07-.11-.12-.16,1.44.31,2.92.64,4.44.97-3.19,2.21-5.17,6.48-3.15,10.13,3.63-1.91,5.23-2.15,8.36-3.26,2.78-1.03,5.07-2.13,7.84-3.99,1.41.32,2.81.62,4.22.94-4.05,1.76-7.07,6.81-4.73,11.04,3.63-1.89,5.24-2.15,8.36-3.26,3.09-1.15,5.59-2.38,8.81-4.67-.09-.12-.18-.24-.28-.37,12.87,2.9,24.24,5.45,29.39,6.47,4.6,4.52,5.07,8.24-1.2,11.12-19.98,8.41-59.65,7.1-80.27.51-12.4-3.75-25.23-11.25-29.11-24.11-2.92-10.49,6.61-19.11,14.91-24.3-28.29,4.83-31.6,30.73-12.44,49.25,15.57,14.41,37.79,18.34,58.29,18.17,15.09-.05,48.85-5.42,56.03-20.32,2.08-4.85-2.02-8.88-6.17-10.32,1.86.37,2.89.54,2.87.44-.15-.83-3.91-1.33-1.78-3.46,2.13-2.14,16.58-7.48,20.54-1.8,3.53,5.07,4.44,35.44,4.6,41.97Z"/>
      <g>
        <path class="cls-1" d="M120.65,6.3l.37,50.78-26.72-4.14,1.03-46.18,25.32-.46Z"/>
        <path class="cls-1" d="M177.31,4.05h8.98c.28,0,.56.38.84,1.14.28.76.58,1.67.91,2.73.33,1.06.61,2.13.84,3.22.23,1.09.49,2.39.77,3.91l-21.04,6.36-11.64-5.71-.7,32.62c0,.27.89.41,2.66.41,2.34,0,4.11-.08,5.33-.24l-.42-8.48,26.37-3.34-7.71,22.1-41.79.24c-.38,0-1.29-.41-2.73-1.22-1.45-.82-3.06-1.77-4.84-2.85-1.78-1.09-3.34-2.08-4.7-2.98-1.36-.9-2.17-1.45-2.45-1.67-.09-.05-.14-.27-.14-.65,0-1.36.33-4.38.98-9.05.65-4.68,1.4-9.69,2.24-15.05.84-5.35,1.59-10.09,2.24-14.19.65-4.1.98-6.27.98-6.48,0-.11.54-.2,1.61-.29,1.07-.08,2.59-.15,4.56-.2,1.96-.05,4.18-.09,6.66-.12,2.48-.03,5.12-.05,7.92-.08,2.8-.03,5.66-.05,8.55-.08,2.9-.03,5.68-.04,8.34-.04h7.36Z"/>
        <path class="cls-1" d="M194.43,5.2l27.27-.72-2.65,34.88c0,.68.88.97,2.65.87,1.35,0,2.23-.05,2.65-.14l6.57-35.46,25.38,2.61-19.19,50.22,20.08,45.88-26.52.29-12-40.38,1.01,40.38-24.88,1.16v-40.81c0-27.01-.13-46.6-.38-58.76Z"/>
        <path class="cls-1" d="M259.97,4.62h42.43l-.13,30.68c-1.94-1.06-3.66-2-5.18-2.82-1.52-.82-3.14-1.66-4.86-2.53-1.73-.87-3.37-1.71-4.92-2.53-1.56-.82-2.86-1.49-3.91-2.03-1.05-.53-1.66-.8-1.83-.8l-.88,20.98,13.38-8.68,4.42,25.91-16.42,1.74.13,16.64,17.05-4.92,3.41,27.64-42.93.43.25-99.72Z"/>
        <path class="cls-1" d="M309.97,4.62l42.81.72,7.45,8.83-1.39,44.72-13.13,7.53,17.8,37.77-23.87.72-9.98-33.87-.25,32.71-24.24-.87,4.8-98.27ZM337.75,17.07l-7.7.72-.25,40.09,9.47-18.67-1.52-22.14Z"/>
        <path class="cls-1" d="M362.88,5.06l45.33.72-2.53,28.37-21.09-9.41-.63,15.78,24.88,2.75,1.01,60.93-43.82,1.59.25-22.87,22.48-1.45,2.9-19.97-24.5,13.03-4.29-69.47Z"/>
        <path class="cls-1" d="M433.33,3.9l.76,31.41,9.47,4.2.25-34.59c12.63.97,20.58,1.45,23.87,1.45,1.18,0,1.94-.05,2.27-.14.17,0,.32.6.44,1.81.13,1.21.21,2.89.25,5.07.04,2.17.06,4.75.06,7.74,0,13.6-.63,41.3-1.89,83.07l-25.89,1.59.38-45.3-8.97.72,3.91,42.11c0,.29-.61.53-1.83.72-1.22.19-2.76.36-4.61.51-1.85.14-3.83.29-5.94.43-2.11.14-4.08.26-5.93.36-1.85.1-4,.19-6.44.29l-1.14-97.26,20.96-4.2Z"/>
        <path class="cls-1" d="M515.03,4.19l11.36,13.6,2.9,85.68-44.7,1.45c-.34,0-1.1-.72-2.27-2.17-1.18-1.45-2.46-3.11-3.85-4.99s-3.14-4.22-5.24-7.02l.63-86.26,3.79.14v-.14l37.38-.29ZM496.72,21.7c-.67,7.14-1.43,15.46-2.27,24.97-.84,9.5-1.58,18.04-2.21,25.62-.63,7.58-.95,11.56-.95,11.94s.71.63,2.15.72c1.43.1,2.99.14,4.67.14,2.86,0,4.75-.05,5.68-.14l3.91-62.67-10.99-.58Z"/>
        <path class="cls-1" d="M532.08,4.62h42.43l-.13,30.68c-1.94-1.06-3.66-2-5.18-2.82-1.52-.82-3.14-1.66-4.86-2.53-1.73-.87-3.37-1.71-4.92-2.53-1.56-.82-2.86-1.49-3.91-2.03-1.05-.53-1.66-.8-1.83-.8l-.88,20.98,13.38-8.68,4.42,25.91-16.42,1.74.13,16.64,17.05-4.92,3.41,27.64-42.93.43.25-99.72Z"/>
      </g>
    </g>
  </g>
</svg>